<svg width="118" height="40" viewBox="0 0 118 40" fill="none" xmlns="http://www.w3.org/2000/svg">
<g clip-path="url(#clip0_15_426)">
<path d="M27.3148 21.2545C27.2666 16.193 31.4499 13.7612 31.6381 13.6453C29.2835 10.2051 25.6261 9.7322 24.3233 9.67913C21.2111 9.36067 18.2485 11.5127 16.6659 11.5127C15.0832 11.5127 12.6466 9.72255 10.0651 9.77563C6.66827 9.82388 3.53679 11.7491 1.78528 14.7889C-1.73703 20.8975 0.887815 29.9686 4.3281 34.9337C6.01206 37.3607 8.00965 40.0965 10.6441 39.9952C13.1821 39.8938 14.1375 38.3546 17.1966 38.3546C20.2557 38.3546 21.1194 39.9952 23.7973 39.9469C26.5235 39.8938 28.2509 37.4668 29.9204 35.0302C31.8408 32.2075 32.6369 29.4813 32.6852 29.3365C32.6224 29.3124 27.3727 27.3004 27.3148 21.2545Z" fill="#0A143A"/>
<path d="M22.2821 6.38842C23.6814 4.69481 24.6223 2.34499 24.3666 0C22.3545 0.0820265 19.9179 1.34138 18.4752 3.03498C17.182 4.53076 16.0481 6.92401 16.3569 9.22075C18.591 9.39445 20.8877 8.0772 22.2821 6.38842ZM44.9601 26.2292L42.644 33.2497H39.667L47.2472 10.9385H50.7212L58.3304 33.2497H55.252L52.8684 26.2292H44.9601ZM52.2749 23.9759L50.094 17.5537C49.597 16.0965 49.2689 14.7744 48.9359 13.4813H48.8732C48.5403 14.8034 48.1784 16.1592 47.749 17.5199L45.568 23.9711L52.2749 23.9759ZM60.5885 22.456C60.5885 20.4053 60.5258 18.7455 60.4534 17.2256H63.0686L63.2037 19.9759H63.2665C64.4583 18.0217 66.3449 16.8637 68.9601 16.8637C72.8346 16.8637 75.7442 20.1399 75.7442 25.0084C75.7442 30.7696 72.2363 33.6116 68.4631 33.6116C66.3449 33.6116 64.492 32.6852 63.5318 31.0977H63.4691V39.8022H60.5885V22.456ZM63.4643 26.7262C63.4643 27.1604 63.527 27.5513 63.5994 27.918C64.1302 29.9349 65.8817 31.3293 67.9709 31.3293C71.0493 31.3293 72.8394 28.8154 72.8394 25.1387C72.8394 21.9252 71.1507 19.1846 68.0723 19.1846C66.0891 19.1846 64.2363 20.608 63.6669 22.7937C63.5656 23.1556 63.4691 23.5899 63.4691 23.9855L63.4643 26.7262ZM78.755 22.456C78.755 20.4053 78.6923 18.7455 78.6199 17.2256H81.2351L81.3702 19.9759H81.4329C82.6247 18.0217 84.5113 16.8637 87.1265 16.8637C91.0011 16.8637 93.9106 20.1399 93.9106 25.0084C93.9106 30.7696 90.4028 33.6116 86.6296 33.6116C84.5113 33.6116 82.6585 32.6852 81.6983 31.0977H81.6356V39.8022H78.755V22.456ZM81.6356 26.7262C81.6356 27.1604 81.6983 27.5513 81.7707 27.918C82.3015 29.9349 84.053 31.3293 86.1422 31.3293C89.2206 31.3293 91.0107 28.8154 91.0107 25.1387C91.0107 21.9252 89.322 19.1846 86.2436 19.1846C84.2604 19.1846 82.4076 20.608 81.8382 22.7937C81.7369 23.1556 81.6404 23.5899 81.6404 23.9855L81.6356 26.7262ZM96.9263 9.74668H99.8407V33.2449H96.9263V9.74668ZM105.698 25.766C105.761 29.7033 108.28 31.3293 111.189 31.3293C113.274 31.3293 114.533 30.9674 115.624 30.5042L116.121 32.5887C115.098 33.0519 113.341 33.5826 110.794 33.5826C105.862 33.5826 102.914 30.3402 102.914 25.5054C102.914 20.6707 105.761 16.8637 110.427 16.8637C115.657 16.8637 117.047 21.462 117.047 24.4101C117.047 25.0084 116.984 25.4668 116.946 25.766H105.698ZM114.239 23.6815C114.272 21.8287 113.476 18.9481 110.2 18.9481C107.252 18.9481 105.964 21.6647 105.732 23.6815H114.239Z" fill="#0A143A"/>
</g>
<defs>
<clipPath id="clip0_15_426">
<rect width="116.936" height="40" fill="white" transform="translate(0.115723)"/>
</clipPath>
</defs>
</svg>
