<svg width="134" height="40" viewBox="0 0 134 40" fill="none" xmlns="http://www.w3.org/2000/svg">
<g clip-path="url(#clip0_15_416)">
<path d="M20.2731 1.52588e-05C9.22768 1.52588e-05 0.273193 8.95426 0.273193 19.9996C0.273193 31.0462 9.22768 40 20.2731 40C31.319 40 40.2729 31.0462 40.2729 19.9996C40.2729 8.95496 31.3194 0.000969825 20.2728 0.000969825L20.2731 1.52588e-05ZM29.4449 28.8452C29.0857 29.4344 28.3181 29.619 27.7308 29.2601C23.0343 26.3896 17.123 25.7412 10.1612 27.3316C9.49037 27.4854 8.82166 27.0648 8.66883 26.3942C8.51526 25.7233 8.93391 25.0546 9.60644 24.9018C17.2249 23.16 23.7599 23.9097 29.0315 27.1309C29.619 27.4916 29.8053 28.2582 29.4446 28.8457L29.4449 28.8452ZM31.8928 23.4003C31.4405 24.1342 30.4809 24.3644 29.7479 23.9137C24.3732 20.6099 16.1775 19.6529 9.81876 21.5831C8.99409 21.8322 8.12311 21.3674 7.87282 20.5442C7.62444 19.7195 8.08944 18.8502 8.91266 18.5994C16.176 16.3956 25.2055 17.4631 31.3791 21.2568C32.1123 21.7082 32.344 22.6683 31.8926 23.4005L31.8928 23.4003ZM32.103 17.7296C25.6562 13.901 15.0223 13.549 8.86798 15.4168C7.87974 15.7166 6.83464 15.1587 6.53515 14.1704C6.23567 13.1817 6.79309 12.1373 7.78205 11.8369C14.8467 9.69223 26.5909 10.1066 34.0121 14.5122C34.9011 15.0397 35.1927 16.1878 34.6658 17.0755C34.1404 17.9644 32.9893 18.2574 32.1032 17.7296H32.103ZM54.6862 18.4633C51.2331 17.6398 50.6183 17.0619 50.6183 15.8474C50.6183 14.7001 51.6985 13.928 53.3049 13.928C54.862 13.928 56.406 14.5143 58.0248 15.7214C58.0737 15.7579 58.1351 15.7724 58.1955 15.7629C58.256 15.7538 58.3094 15.7206 58.3448 15.6707L60.0309 13.2939C60.1002 13.196 60.0813 13.0611 59.9879 12.9863C58.0613 11.4404 55.8918 10.6888 53.356 10.6888C49.6275 10.6888 47.0231 12.9264 47.0231 16.1278C47.0231 19.5609 49.2697 20.7766 53.152 21.7149C56.4564 22.476 57.0141 23.1137 57.0141 24.2536C57.0141 25.5167 55.8863 26.302 54.0715 26.302C52.0559 26.302 50.4118 25.623 48.5726 24.0303C48.527 23.9909 48.4644 23.973 48.4066 23.9763C48.3457 23.9813 48.2901 24.0095 48.2514 24.0561L46.3608 26.3061C46.2815 26.3994 46.2916 26.5389 46.3833 26.6196C48.5232 28.53 51.155 29.539 53.9951 29.539C58.0128 29.539 60.6091 27.3438 60.6091 23.946C60.6163 21.0777 58.8991 19.4895 54.6934 18.4664L54.6862 18.4633ZM69.6988 15.0577C67.9573 15.0577 66.5288 15.7436 65.3509 17.149V15.5671C65.3509 15.4422 65.2497 15.3404 65.125 15.3404H62.033C61.9081 15.3404 61.807 15.4422 61.807 15.5671V33.145C61.807 33.2699 61.908 33.3717 62.033 33.3717H65.125C65.2497 33.3717 65.3509 33.2699 65.3509 33.145V27.5964C66.5291 28.9185 67.9577 29.5646 69.6988 29.5646C72.9346 29.5646 76.2103 27.0736 76.2103 22.312C76.2151 17.5491 72.9384 15.0574 69.7023 15.0574L69.6988 15.0577ZM72.6148 22.312C72.6148 24.7367 71.1212 26.4288 68.9825 26.4288C66.8682 26.4288 65.2733 24.6598 65.2733 22.312C65.2733 19.9643 66.8682 18.1951 68.9825 18.1951C71.0866 18.1949 72.615 19.9259 72.615 22.3117L72.6148 22.312ZM84.6062 15.0577C80.4389 15.0577 77.1742 18.2665 77.1742 22.3638C77.1742 26.4164 80.4165 29.5916 84.5551 29.5916C88.7371 29.5916 92.0119 26.3935 92.0119 22.3119C92.0119 18.2445 88.7591 15.0581 84.6059 15.0581L84.6062 15.0577ZM84.6062 26.4529C82.3896 26.4529 80.7186 24.672 80.7186 22.3108C80.7186 19.9395 82.3319 18.2187 84.5551 18.2187C86.7859 18.2187 88.4682 19.9996 88.4682 22.3626C88.4682 24.7334 86.8442 26.4529 84.6064 26.4529H84.6062ZM100.911 15.3404H97.5082V11.8617C97.5082 11.737 97.4074 11.6353 97.2825 11.6353H94.1909C94.0658 11.6353 93.9643 11.737 93.9643 11.8617V15.3404H92.4776C92.3532 15.3404 92.2524 15.4422 92.2524 15.5671V18.2245C92.2524 18.3491 92.3532 18.4511 92.4776 18.4511H93.9643V25.3271C93.9643 28.1058 95.3473 29.5147 98.0749 29.5147C99.184 29.5147 100.104 29.2856 100.971 28.7939C101.042 28.7545 101.086 28.6785 101.086 28.5978V26.0672C101.086 25.9891 101.045 25.9153 100.978 25.8745C100.911 25.8322 100.827 25.8301 100.758 25.8642C100.162 26.164 99.5864 26.3022 98.9428 26.3022C97.9507 26.3022 97.5082 25.8518 97.5082 24.8423V18.4523H100.911C101.036 18.4523 101.136 18.3506 101.136 18.2257V15.5685C101.141 15.4436 101.041 15.3419 100.914 15.3419L100.911 15.3404ZM112.766 15.354V14.9268C112.766 13.6698 113.248 13.1093 114.329 13.1093C114.973 13.1093 115.491 13.2373 116.071 13.4308C116.143 13.4532 116.217 13.442 116.275 13.3993C116.335 13.3565 116.368 13.288 116.368 13.2154V10.6098C116.368 10.5102 116.304 10.4221 116.208 10.3927C115.596 10.2104 114.812 10.0235 113.638 10.0235C110.783 10.0235 109.273 11.6317 109.273 14.6727V15.327H107.787C107.663 15.327 107.561 15.4288 107.561 15.5534V18.2245C107.561 18.3491 107.663 18.4511 107.787 18.4511H109.273V29.057C109.273 29.1819 109.374 29.2837 109.498 29.2837H112.59C112.715 29.2837 112.817 29.1819 112.817 29.057V18.4518H115.704L120.126 29.0552C119.624 30.1693 119.131 30.3909 118.457 30.3909C117.912 30.3909 117.338 30.2283 116.752 29.9073C116.697 29.8769 116.631 29.8719 116.572 29.8903C116.513 29.9111 116.463 29.955 116.438 30.0124L115.39 32.3115C115.34 32.4202 115.383 32.5477 115.487 32.6041C116.581 33.1966 117.569 33.4495 118.79 33.4495C121.073 33.4495 122.335 32.386 123.447 29.5249L128.811 15.6635C128.838 15.5938 128.83 15.515 128.788 15.4531C128.745 15.3918 128.676 15.3547 128.601 15.3547H125.383C125.286 15.3547 125.2 15.4161 125.168 15.5066L121.871 24.9254L118.259 15.5004C118.226 15.4128 118.142 15.3547 118.048 15.3547H112.765L112.766 15.354ZM105.893 15.3404H102.801C102.676 15.3404 102.574 15.4422 102.574 15.5671V29.0571C102.574 29.182 102.676 29.2837 102.801 29.2837H105.893C106.017 29.2837 106.119 29.182 106.119 29.0571V15.568C106.119 15.5382 106.113 15.5087 106.102 15.4811C106.091 15.4536 106.074 15.4286 106.053 15.4075C106.032 15.3865 106.007 15.3698 105.979 15.3584C105.952 15.3471 105.922 15.3413 105.892 15.3414L105.893 15.3404ZM104.364 9.1981C103.139 9.1981 102.145 10.1897 102.145 11.4146C102.145 12.6403 103.139 13.6331 104.364 13.6331C105.589 13.6331 106.582 12.6403 106.582 11.4146C106.582 10.1899 105.588 9.1981 104.365 9.1981H104.364ZM131.452 19.6777C130.228 19.6777 129.276 18.6949 129.276 17.5015C129.276 16.3081 130.24 15.3141 131.463 15.3141C132.687 15.3141 133.639 16.2967 133.639 17.4891C133.639 18.6825 132.674 19.6777 131.451 19.6777H131.452ZM131.464 15.5305C130.349 15.5305 129.506 16.4166 129.506 17.5015C129.506 18.586 130.343 19.4601 131.452 19.4601C132.567 19.4601 133.411 18.5748 133.411 17.4891C133.411 16.4046 132.573 15.5305 131.465 15.5305H131.464ZM131.946 17.7129L132.561 18.5746H132.042L131.488 17.7841H131.012V18.5746H130.578V16.2905H131.596C132.127 16.2905 132.476 16.562 132.476 17.0191C132.478 17.3936 132.261 17.6224 131.948 17.7129L131.946 17.7129ZM131.578 16.6824H131.012V17.4048H131.578C131.861 17.4048 132.03 17.2666 132.03 17.0433C132.03 16.8083 131.86 16.6824 131.578 16.6824L131.578 16.6824Z" fill="#0A143A"/>
</g>
<defs>
<clipPath id="clip0_15_416">
<rect width="133.366" height="40" fill="white" transform="translate(0.273193)"/>
</clipPath>
</defs>
</svg>
