<svg width="176" height="38" viewBox="0 0 176 38" fill="none" xmlns="http://www.w3.org/2000/svg">
<g clip-path="url(#clip0_15_418)">
<path fill-rule="evenodd" clip-rule="evenodd" d="M94.0019 26.6389C92.104 28.5672 89.8338 29.5365 87.2026 29.5365C85.0747 29.5365 83.2663 29.1021 81.4209 28.0285V23.6081C82.9053 24.6162 84.7708 25.5762 86.6101 25.5762C90.4481 25.5762 92.7327 22.9314 92.7327 19.1834C92.7327 15.4323 90.3699 12.7089 86.5302 12.7089C84.8153 12.7089 83.4253 13.3262 82.3395 14.5635C81.1756 15.9038 80.5739 17.8195 80.5739 20.3525V37.8075H80.2849C78.1693 37.8075 76.4552 36.0913 76.4552 33.9734V19.6972C76.4552 13.6392 80.154 8.74778 86.5114 8.74778C89.6505 8.74778 92.2001 9.82264 94.1333 11.982C95.9508 13.9994 96.8514 16.5556 96.8514 19.6317C96.8514 22.3691 95.901 24.7092 94.0019 26.6389ZM138.595 26.4909C136.704 28.5231 134.272 29.5365 131.322 29.5365C128.208 29.5365 125.671 28.4616 123.74 26.3027C121.924 24.2604 121.023 21.702 121.023 18.6538C121.023 13.2577 125.182 8.74778 130.656 8.74778C132.768 8.74778 134.601 9.1944 136.453 10.2112V14.6779C134.968 13.6694 133.103 12.7093 131.264 12.7093C127.426 12.7093 125.141 15.3537 125.141 19.103C125.141 22.8013 127.559 25.5767 131.342 25.5767C133.056 25.5767 134.467 24.9336 135.596 23.6382C136.717 22.3516 137.3 20.4608 137.3 17.9208V4.02659C137.3 1.9083 139.015 0.192535 141.129 0.192535H141.419V18.5722C141.419 21.809 140.483 24.4586 138.595 26.4909ZM150.225 6.78622C149.793 7.27082 149.173 7.49392 148.418 7.49392C147.003 7.49392 145.992 6.45005 145.992 5.04513C145.992 3.60747 146.985 2.63695 148.417 2.63695C149.796 2.63695 150.843 3.6603 150.843 5.04513C150.843 5.73056 150.642 6.31777 150.225 6.78622ZM171.152 17.9203C171.152 16.2945 170.538 15.0075 169.304 14.0326C168.192 13.1551 166.803 12.7089 165.114 12.7089C161.386 12.7089 158.993 15.6265 158.993 19.2244C158.993 22.6865 161.53 25.5762 165.075 25.5762C167.54 25.5762 168.859 24.1342 170.265 22.3377V27.5173C169.549 28.0547 168.725 28.6406 167.884 28.9846C166.996 29.3557 165.936 29.5365 164.712 29.5365C158.783 29.5365 154.874 24.6205 154.874 18.9393C154.874 16.0221 155.779 13.6104 157.601 11.7296C159.534 9.73663 162.07 8.74778 165.175 8.74778C171.061 8.74778 175.271 12.1317 175.271 18.246V29.1291H174.983C172.867 29.1291 171.152 27.4125 171.152 25.2942V17.9203ZM114.772 16.7521C114.251 15.1406 113.599 14.3474 112.098 13.5083C108.529 11.5118 105.016 13.2114 103.382 16.7368L114.772 16.7521ZM111.629 29.4758C108.998 30.0355 106.417 29.6037 103.899 28.1944C101.442 26.8209 99.7966 24.7782 98.9719 22.0788C97.305 16.6193 100.72 10.5356 106.213 9.06255C108.936 8.33259 111.547 8.66308 114.027 10.0505C118.147 12.3566 119.648 15.923 119.386 20.5184L102.793 20.4853C103.037 22.3595 104.198 23.826 105.829 24.738C107.483 25.6635 109.003 25.8844 110.413 25.4466C111.981 24.9541 113.251 23.674 114.285 22.4822L117.666 24.9493C116.287 27.4203 114.409 28.8829 111.629 29.4758ZM146.358 9.15598H150.476V29.1287H150.187C148.073 29.1287 146.358 27.412 146.358 25.2938L146.358 9.15598ZM6.66647 29.1287C2.63814 29.1287 0.639038 26.3856 0.639038 22.5538V8.02C0.639038 5.90258 2.35393 4.1855 4.46916 4.1855H4.75818V9.15641H11.7168V13.1171H4.75774V23.0135C4.75774 24.6965 5.50822 25.1689 7.11397 25.1689H11.7168V29.1296L6.66647 29.1287ZM30.5854 26.6039C28.551 28.5572 26.1052 29.536 23.264 29.536C20.4493 29.536 18.0176 28.5563 15.9831 26.6039C13.9417 24.6437 12.924 22.1486 12.924 19.1423C12.924 13.2764 17.3972 8.74821 23.264 8.74821C26.0799 8.74821 28.5182 9.73489 30.5653 11.7017C32.6195 13.6742 33.6459 16.1618 33.6459 19.1423C33.6459 22.1486 32.6269 24.6432 30.5854 26.6039ZM49.8417 13.9619C49.2375 14.9765 48.769 15.7038 48.4394 16.1435C48.0762 16.6215 47.7173 17.0035 47.3619 17.2672C50.2241 18.1928 51.2903 20.1783 51.2903 23.1362V29.1287H51.0013C48.886 29.1287 47.1711 27.412 47.1711 25.2938V23.5426C47.1711 21.6273 46.3133 20.3281 44.2866 20.3281H40.5465V29.1287H40.257C38.1422 29.1287 36.4286 27.412 36.4286 25.2938V4.02659C36.4286 1.9083 38.1422 0.192535 40.2574 0.192535H40.5465V16.3273H41.7636C43.1013 16.3273 43.9802 15.8688 44.4849 15.0022L47.9443 9.15685L52.6376 9.15249L49.8417 13.9619ZM71.1023 26.6044C69.067 28.5576 66.6213 29.5365 63.7804 29.5365C60.9662 29.5365 58.5345 28.5568 56.4991 26.6044C54.4577 24.6441 53.44 22.1491 53.44 19.1428C53.44 13.2769 57.9137 8.74865 63.7804 8.74865C66.5964 8.74865 69.0342 9.73532 71.0818 11.7021C73.1364 13.6746 74.1619 16.1622 74.1619 19.1428C74.1619 22.1491 73.1438 24.6437 71.1023 26.6044ZM68.1292 14.4945C66.9941 13.3057 65.5525 12.7089 63.7804 12.7089C59.9905 12.7089 57.7211 15.4755 57.7211 19.1428C57.7211 22.759 60.0442 25.5762 63.7804 25.5762C67.5176 25.5762 69.8397 22.759 69.8397 19.1428C69.8397 17.2227 69.2634 15.682 68.1296 14.4945H68.1292ZM27.6132 14.4945C26.4781 13.3057 25.0365 12.7089 23.2648 12.7089C19.4744 12.7089 17.2055 15.4755 17.2055 19.1428C17.2055 22.759 19.5281 25.5762 23.2644 25.5762C27.0015 25.5762 29.3233 22.759 29.3233 19.1428C29.3233 17.2227 28.7479 15.682 27.6132 14.4945Z" fill="#0A143A"/>
</g>
<defs>
<clipPath id="clip0_15_418">
<rect width="174.632" height="38" fill="white" transform="translate(0.639038)"/>
</clipPath>
</defs>
</svg>
